<svg xmlns="http://www.w3.org/2000/svg" xmlns:xlink="http://www.w3.org/1999/xlink" width="700" zoomAndPan="magnify" viewBox="0 0 525 525.000007" height="700" preserveAspectRatio="xMidYMid meet" version="1.0"><defs><g/><clipPath id="d547c7ec94"><path d="M 0.5 0 L 524.5 0 L 524.5 524 L 0.5 524 Z M 0.5 0 " clip-rule="nonzero"/></clipPath><clipPath id="40d5780147"><rect x="0" width="299" y="0" height="479"/></clipPath></defs><g clip-path="url(#d547c7ec94)"><path fill="#ffffff" d="M 0.5 0 L 524.5 0 L 524.5 524 L 0.5 524 Z M 0.5 0 " fill-opacity="1" fill-rule="nonzero"/><path fill="#f0db4f" d="M 0.5 0 L 524.5 0 L 524.5 524 L 0.5 524 Z M 0.5 0 " fill-opacity="1" fill-rule="nonzero"/></g><g transform="matrix(1, 0, 0, 1, 200, 45)"><g clip-path="url(#40d5780147)"><g fill="#323330" fill-opacity="1"><g transform="translate(2.124065, 426.126281)"><g><path d="M 156.453125 -39.828125 C 176.171875 -39.828125 195.328125 -46.65625 213.921875 -60.3125 L 238.375 -21.046875 C 225.863281 -12.703125 212.304688 -6.160156 197.703125 -1.421875 C 183.097656 3.316406 168.96875 5.6875 155.3125 5.6875 C 129.144531 5.6875 106.296875 0.285156 86.765625 -10.515625 C 67.234375 -21.328125 52.15625 -36.210938 41.53125 -55.171875 C 30.90625 -74.140625 25.59375 -95.570312 25.59375 -119.46875 C 25.59375 -142.601562 31.378906 -163.75 42.953125 -182.90625 C 54.523438 -202.0625 70.359375 -217.234375 90.453125 -228.421875 C 110.554688 -239.609375 132.554688 -245.203125 156.453125 -245.203125 C 187.171875 -245.203125 212.863281 -236.191406 233.53125 -218.171875 C 254.207031 -200.160156 268.335938 -175.035156 275.921875 -142.796875 L 89.328125 -77.375 C 96.148438 -65.613281 105.34375 -56.414062 116.90625 -49.78125 C 128.476562 -43.144531 141.660156 -39.828125 156.453125 -39.828125 Z M 152.46875 -203.109375 C 130.851562 -203.109375 113.023438 -195.519531 98.984375 -180.34375 C 84.953125 -165.175781 77.9375 -145.832031 77.9375 -122.3125 C 77.9375 -116.625 78.128906 -112.265625 78.515625 -109.234375 L 215.625 -159.859375 C 209.9375 -172.753906 201.875 -183.1875 191.4375 -191.15625 C 181.007812 -199.125 168.019531 -203.109375 152.46875 -203.109375 Z M 152.46875 -203.109375 "/></g></g></g></g></g></svg>